<?xml version="1.0" encoding="UTF-8"?>
<svg xmlns="http://www.w3.org/2000/svg" viewBox="0 0 1200 500" id="bogotaCroquis" style="width:100%;height:480px;">
  <style>
    .loc { fill:#58b6ff; stroke:#fff; stroke-width:12; stroke-linejoin:round; stroke-linecap:round; cursor:pointer; transition:fill 180ms ease, transform 180ms ease, filter 180ms ease; transform-origin:center center; }
    .loc:hover { transform: translateY(-3px) scale(1.02); filter: brightness(0.92) drop-shadow(0 4px 10px rgba(0,0,0,0.14)); }
    .loc-label { font-family: Arial, Helvetica, sans-serif; font-size:12px; fill:#fff; pointer-events:none; text-shadow: 0 1px 2px rgba(0,0,0,0.35); }
  </style>
  <!-- This is a simplified croquis inspired by the provided image. Each path has data-name matching localidad names used in the app -->
  <g id="localidades">
    <path id="Usaquen" class="loc" data-name="Usaquén" data-stroke="#fff" data-stroke-width="12" aria-label="Usaquén" tabindex="0" d="M90 48 C120 40,220 38,320 42 C380 44,460 54,520 62 C540 70,520 86,500 96 C450 120,380 120,320 116 C250 110,180 90,140 76 C120 64,100 56,90 48 Z"/>
    <text x="210" y="88" class="loc-label">Usaquén</text>

    <path id="Suba" class="loc" data-name="Suba" data-stroke="#fff" data-stroke-width="12" aria-label="Suba" tabindex="0" d="M30 150 C70 138,120 132,190 136 C230 140,260 165,230 190 C200 215,140 230,90 240 C50 235,28 200,30 150 Z"/>
    <text x="85" y="188" class="loc-label">Suba</text>

    <path id="Chapinero" class="loc" data-name="Chapinero" data-stroke="#fff" data-stroke-width="12" aria-label="Chapinero" tabindex="0" d="M320 48 C350 46,400 48,440 70 C460 96,430 110,390 118 C354 116,336 92,320 76 C318 64,318 56,320 48 Z"/>
    <text x="350" y="82" class="loc-label">Chapinero</text>

    <path id="BarriosUnidos" class="loc" data-name="Barrios Unidos" data-stroke="#fff" data-stroke-width="12" aria-label="Barrios Unidos" tabindex="0" d="M240 110 C275 95,320 96,350 110 C360 130,340 150,310 162 C270 158,245 142,230 122 C232 118,236 114,240 110 Z"/>
    <text x="270" y="135" class="loc-label">Barrios Unidos</text>

    <path id="Teusaquillo" class="loc" data-name="Teusaquillo" data-stroke="#fff" data-stroke-width="12" aria-label="Teusaquillo" tabindex="0" d="M180 180 C210 172,250 170,290 182 C310 198,300 220,280 232 C240 238,200 230,180 210 C174 200,176 190,180 180 Z"/>
    <text x="210" y="205" class="loc-label">Teusaquillo</text>

    <path id="Engativa" class="loc" data-name="Engativá" data-stroke="#fff" data-stroke-width="12" aria-label="Engativá" tabindex="0" d="M70 260 C110 248,170 240,240 250 C280 260,290 300,250 330 C200 360,140 350,100 330 C75 310,70 285,70 260 Z"/>
    <text x="120" y="300" class="loc-label">Engativá</text>

    <path id="Fontibon" class="loc" data-name="Fontibón" data-stroke="#fff" data-stroke-width="12" aria-label="Fontibón" tabindex="0" d="M240 300 C280 292,340 290,420 318 C460 340,440 380,380 392 C320 398,280 374,260 350 C248 332,240 316,240 300 Z"/>
    <text x="300" y="345" class="loc-label">Fontibón</text>

    <path id="Kennedy" class="loc" data-name="Kennedy" data-stroke="#fff" data-stroke-width="12" aria-label="Kennedy" tabindex="0" d="M370 310 C410 300,480 298,560 330 C600 360,610 392,590 410 C560 432,500 420,460 405 C420 390,395 365,372 328 C368 320,370 316,370 310 Z"/>
    <text x="470" y="355" class="loc-label">Kennedy</text>

    <path id="PuenteAranda" class="loc" data-name="Puente Aranda" data-stroke="#fff" data-stroke-width="12" aria-label="Puente Aranda" tabindex="0" d="M340 198 C372 188,430 188,478 206 C494 216,480 238,450 250 C410 258,370 248,350 230 C344 216,342 204,340 198 Z"/>
    <text x="385" y="225" class="loc-label">Puente Aranda</text>

    <path id="LosMartires" class="loc" data-name="Los Mártires" data-stroke="#fff" data-stroke-width="12" aria-label="Los Mártires" tabindex="0" d="M410 168 C440 158,500 162,526 190 C512 200,486 210,456 218 C430 212,418 192,410 170 C408 168,409 168,410 168 Z"/>
    <text x="435" y="200" class="loc-label">Los Mártires</text>

    <path id="SantaFe" class="loc" data-name="Santa Fe" data-stroke="#fff" data-stroke-width="12" aria-label="Santa Fe" tabindex="0" d="M520 78 C555 66,600 70,632 92 C648 108,634 126,610 132 C574 140,540 126,520 110 C520 102,520 92,520 78 Z"/>
    <text x="545" y="120" class="loc-label">Santa Fe</text>

    <path id="LaCandelaria" class="loc" data-name="La Candelaria" data-stroke="#fff" data-stroke-width="12" aria-label="La Candelaria" tabindex="0" d="M540 150 C560 144,600 150,612 168 C600 182,572 196,548 196 C532 188,540 172,540 150 Z"/>
    <text x="555" y="190" class="loc-label">La Candelaria</text>

    <path id="LosMartires2" class="loc" data-name="Antonio Nariño" data-stroke="#fff" data-stroke-width="12" aria-label="Antonio Nariño" tabindex="0" d="M514 208 C532 200,568 204,594 228 C600 238,578 252,548 256 C520 252,516 232,514 208 Z"/>
    <text x="535" y="250" class="loc-label">Antonio Nariño</text>

    <path id="RafaelUribe" class="loc" data-name="Rafael Uribe Uribe" data-stroke="#fff" data-stroke-width="12" aria-label="Rafael Uribe Uribe" tabindex="0" d="M586 258 C615 248,666 252,698 282 C710 300,692 322,660 332 C628 336,602 324,588 304 C585 292,586 272,586 258 Z"/>
    <text x="620" y="300" class="loc-label">Rafael Uribe</text>

    <path id="Usme" class="loc" data-name="Usme" data-stroke="#fff" data-stroke-width="12" aria-label="Usme" tabindex="0" d="M710 72 C746 64,820 68,892 110 C914 140,904 170,872 184 C806 200,760 184,732 156 C718 138,706 110,710 72 Z"/>
    <text x="780" y="130" class="loc-label">Usme</text>

    <path id="SanCristobal" class="loc" data-name="San Cristóbal" data-stroke="#fff" data-stroke-width="12" aria-label="San Cristóbal" tabindex="0" d="M860 30 C896 22,952 26,1008 62 C1020 78,1004 102,980 112 C920 130,880 112,864 84 C860 64,860 46,860 30 Z"/>
    <text x="900" y="70" class="loc-label">San Cristóbal</text>

    <path id="Tunjuelito" class="loc" data-name="Tunjuelito" data-stroke="#fff" data-stroke-width="12" aria-label="Tunjuelito" tabindex="0" d="M650 196 C678 190,710 196,740 218 C754 236,738 258,706 264 C684 268,662 252,650 232 C648 216,648 206,650 196 Z"/>
    <text x="675" y="240" class="loc-label">Tunjuelito</text>

    <path id="CiudadBolivar" class="loc" data-name="Ciudad Bolívar" data-stroke="#fff" data-stroke-width="12" aria-label="Ciudad Bolívar" tabindex="0" d="M740 248 C780 238,840 246,892 282 C910 306,902 338,868 350 C828 364,780 344,760 318 C744 298,740 278,740 248 Z"/>
    <text x="785" y="320" class="loc-label">Ciudad Bolívar</text>

    <path id="Bosa" class="loc" data-name="Bosa" data-stroke="#fff" data-stroke-width="12" aria-label="Bosa" tabindex="0" d="M402 412 C442 396,514 392,560 412 C590 428,574 456,522 470 C486 478,444 466,414 452 C404 444,402 428,402 412 Z"/>
    <text x="455" y="450" class="loc-label">Bosa</text>

    <path id="Sumapaz" class="loc" data-name="Sumapaz" data-stroke="#fff" data-stroke-width="12" aria-label="Sumapaz" tabindex="0" d="M900 360 C936 348,1004 356,1056 392 C1076 414,1056 438,1004 444 C960 446,924 432,900 412 C896 398,896 374,900 360 Z"/>
    <text x="960" y="405" class="loc-label">Sumapaz</text>
  </g>
</svg>
